<?xml version="1.0" standalone="no"?>
<svg version="1.0" xmlns="http://www.w3.org/2000/svg"
 width="1000" height="667" viewBox="0 0 10000 6670"
 preserveAspectRatio="xMidYMid meet">
<g transform="translate(10000,6670) scale(-1,-1)" fill="#ffffff" stroke="none">
<path d="M5500 6471 c0 -21 39 -36 55 -20 7 7 4 15 -9 25 -27 19 -46 18 -46
-5z"/>
<path d="M6520 6434 c0 -8 5 -12 10 -9 6 4 8 11 5 16 -9 14 -15 11 -15 -7z"/>
<path d="M7421 6398 c-8 -23 -14 -29 -22 -21 -6 6 -18 9 -26 6 -8 -3 -19 0
-23 8 -5 7 -13 10 -17 5 -4 -5 -2 -11 5 -13 7 -3 19 -11 26 -19 8 -8 19 -14
24 -14 5 0 15 -7 22 -15 11 -13 10 -18 -6 -30 -10 -8 -25 -12 -31 -10 -7 2
-13 0 -13 -6 0 -6 -7 -3 -15 5 -22 22 -84 50 -93 42 -3 -4 0 -11 8 -16 8 -6
11 -10 5 -11 -5 -1 -14 -3 -20 -4 -28 -5 -65 -30 -65 -44 0 -13 -2 -13 -9 -2
-14 22 -33 2 -26 -28 8 -37 -36 -81 -60 -61 -12 10 -19 10 -27 2 -7 -7 -23
-12 -36 -12 -22 0 -24 3 -18 33 4 23 3 28 -4 17 -9 -13 -11 -13 -20 0 -8 13
-10 12 -10 -2 0 -20 -20 -24 -36 -8 -17 17 -58 -7 -79 -46 -10 -19 -22 -34
-26 -34 -19 0 -38 13 -33 22 4 6 0 14 -7 19 -11 7 -11 11 -2 17 7 4 11 18 8
30 -2 12 1 22 6 22 6 0 8 4 4 10 -4 6 -15 6 -31 0 -14 -6 -31 -7 -37 -3 -7 4
-22 6 -35 4 -14 -1 -21 2 -20 10 2 8 -7 13 -22 13 -17 1 -25 6 -24 19 2 19
-11 23 -21 6 -4 -6 -13 -8 -21 -5 -7 3 -16 0 -20 -6 -4 -7 -10 -6 -16 3 -7 10
-8 3 -4 -20 3 -18 6 -40 6 -47 0 -21 21 -17 27 6 3 11 12 20 20 20 8 0 12 -4
9 -9 -7 -11 54 -52 66 -45 5 3 -2 14 -14 25 l-23 20 34 -7 c52 -10 55 -10 74
-19 9 -4 17 -13 17 -20 0 -21 -21 -29 -31 -14 -8 12 -10 12 -18 0 -7 -11 -13
-12 -23 -3 -11 9 -17 9 -27 -1 -9 -9 -14 -9 -19 0 -12 20 -91 8 -114 -17 -15
-16 -18 -24 -8 -30 7 -5 2 -9 -17 -13 -20 -4 -34 0 -50 15 -12 11 -22 23 -21
27 2 20 -4 31 -17 31 -9 0 -18 7 -21 15 -8 20 -24 19 -24 0 0 -9 -11 -20 -25
-25 -14 -5 -25 -14 -25 -20 0 -14 47 -13 52 2 3 8 13 3 29 -12 49 -49 51 -55
28 -84 -12 -15 -19 -30 -15 -33 10 -10 -15 -33 -35 -33 -11 0 -19 -4 -19 -9 0
-13 -62 -71 -77 -71 -7 0 -19 13 -28 30 -13 26 -13 29 0 24 18 -7 30 19 20 44
-7 16 -8 16 -14 0 -10 -28 -64 -63 -96 -63 -24 0 -31 -5 -33 -22 -4 -25 -22
-32 -22 -8 0 25 -37 17 -68 -15 -29 -29 -62 -40 -62 -21 0 11 -70 20 -76 9 -7
-12 -52 -10 -56 2 -2 7 -22 7 -59 -1 -37 -7 -71 -8 -100 -2 -28 6 -68 5 -109
-2 -55 -8 -70 -16 -102 -48 -36 -37 -38 -38 -62 -22 -14 9 -30 14 -35 11 -5
-4 -28 -3 -51 0 -37 6 -39 8 -25 24 16 18 19 38 9 64 -4 11 -19 16 -50 16 -48
0 -71 -23 -59 -60 8 -24 -10 -29 -115 -34 -41 -2 -102 -12 -135 -22 -33 -10
-98 -19 -145 -21 -152 -5 -147 -3 -213 -66 -64 -61 -61 -60 -139 -43 -20 5
-33 1 -49 -15 -16 -16 -28 -20 -55 -15 -38 8 -84 -12 -108 -45 -12 -17 -21
-20 -48 -15 -30 5 -35 2 -49 -27 -18 -38 -47 -45 -77 -20 l-22 18 25 12 c20 9
25 8 25 -3 0 -8 4 -14 8 -14 12 0 32 22 32 36 0 16 -70 10 -109 -9 -18 -9 -31
-11 -31 -5 0 6 -7 8 -15 5 -8 -4 -27 0 -42 8 -35 19 -49 19 -34 1 9 -10 8 -15
-4 -20 -10 -4 -21 7 -35 34 -25 49 -55 70 -100 70 -40 0 -68 -14 -51 -24 13
-9 15 -46 2 -46 -5 0 -22 -5 -38 -12 -15 -6 -34 -10 -40 -9 -7 1 -13 -3 -13
-9 0 -5 -18 -10 -39 -10 -37 0 -39 2 -43 35 -3 25 1 40 14 52 25 22 23 38 -8
62 -20 16 -41 21 -84 21 -50 0 -65 -5 -111 -36 -63 -42 -123 -74 -140 -74 -7
0 -10 3 -6 6 9 9 -19 34 -38 34 -14 0 -14 -2 1 -25 16 -24 15 -25 -12 -36 -63
-24 -134 -34 -154 -21 -11 7 -25 12 -31 12 -6 0 -25 6 -42 14 -67 29 -98 36
-119 25 -11 -6 -34 -9 -51 -6 -20 2 -44 -3 -65 -14 -18 -11 -51 -19 -74 -19
-29 0 -54 -8 -80 -26 -21 -15 -38 -29 -38 -31 0 -2 5 -1 10 2 16 10 12 -28 -6
-53 -8 -12 -24 -22 -35 -22 -12 0 -27 -12 -37 -30 -14 -24 -22 -29 -41 -25
-16 4 -27 0 -36 -12 -13 -17 -14 -16 -24 10 -6 15 -15 27 -21 27 -5 0 -10 13
-10 30 0 30 -57 100 -83 100 -7 0 -28 6 -47 13 -31 10 -35 16 -32 42 2 16 15
39 30 52 21 18 24 25 14 35 -18 18 -15 56 8 80 35 38 20 79 -26 70 -14 -2 -28
-12 -31 -21 -2 -9 -8 -23 -13 -32 -4 -9 -9 -36 -11 -60 -1 -24 -6 -52 -11 -61
-6 -12 -3 -20 8 -26 10 -5 15 -16 11 -25 -4 -11 -36 -16 -152 -22 -142 -7
-147 -6 -161 14 -19 27 -40 27 -47 0 -6 -21 -9 -22 -114 -15 l-108 8 -67 -34
c-37 -18 -67 -36 -67 -39 -1 -5 15 -14 62 -37 4 -2 7 6 7 18 0 32 50 24 69
-12 14 -24 14 -28 -2 -45 -23 -26 -85 -20 -89 9 -2 16 -18 24 -76 39 -104 26
-162 15 -162 -31 0 -38 -10 -49 -36 -40 -20 8 -30 4 -68 -31 -57 -53 -54 -77
13 -142 29 -27 56 -45 62 -41 7 4 9 0 5 -14 -4 -11 -2 -23 4 -27 11 -7 14 -68
3 -79 -4 -3 -8 -16 -10 -28 -2 -12 -7 -25 -12 -28 -11 -7 -21 -55 -25 -118 -2
-36 -11 -64 -26 -84 -12 -17 -23 -42 -25 -57 -1 -14 -11 -44 -22 -66 -11 -22
-18 -47 -16 -57 2 -9 -1 -19 -6 -23 -6 -3 -11 -21 -11 -40 0 -19 -5 -37 -10
-40 -17 -10 -11 -35 8 -35 9 0 23 -9 30 -20 7 -11 23 -20 36 -20 13 0 27 -7
30 -16 3 -8 10 -13 15 -10 4 3 8 -11 7 -32 -1 -32 2 -37 19 -34 25 3 64 -76
68 -140 2 -24 15 -69 30 -102 15 -32 27 -66 26 -75 0 -10 -2 -11 -6 -3 -7 17
-23 15 -23 -4 0 -8 -4 -12 -10 -9 -24 15 -7 -20 25 -52 27 -27 33 -39 25 -48
-7 -8 -7 -15 -2 -19 6 -3 13 1 16 10 5 14 10 13 34 -10 15 -14 37 -36 49 -47
12 -12 30 -42 39 -68 8 -25 20 -54 25 -63 18 -35 8 -98 -16 -98 -7 0 -15 -7
-19 -15 -3 -9 -21 -25 -41 -36 -41 -24 -43 -39 -13 -79 16 -22 19 -33 11 -41
-15 -15 -6 -37 34 -82 36 -41 41 -57 17 -57 -8 0 -13 -4 -10 -9 3 -5 -10 -16
-29 -25 -19 -9 -35 -21 -35 -26 0 -6 -9 -10 -19 -10 -26 0 -49 -74 -51 -165 0
-58 3 -74 20 -93 23 -24 46 -29 53 -9 4 7 6 8 6 1 2 -22 -29 -39 -49 -27 -14
10 -22 7 -39 -11 -21 -23 -29 -42 -12 -32 5 4 7 -2 4 -13 -3 -10 0 -22 6 -25
6 -4 11 -2 11 3 0 6 5 11 10 11 6 0 10 -8 8 -17 -2 -14 4 -18 25 -19 27 -1 67
-33 67 -53 0 -5 6 -12 13 -14 10 -4 10 -6 0 -6 -7 -1 -13 -6 -13 -12 0 -6 6
-9 14 -6 18 7 50 -28 41 -43 -4 -7 -2 -22 5 -34 16 -32 62 -24 54 8 -3 14 2
31 15 47 17 20 22 22 33 10 9 -10 9 -12 1 -7 -20 11 -15 -8 7 -27 26 -22 25
-48 -4 -91 -13 -19 -26 -58 -30 -85 -7 -54 -18 -64 -36 -31 -11 21 -35 27 -45
10 -4 -6 1 -7 11 -3 14 5 16 2 10 -21 -6 -25 -5 -27 15 -21 14 5 19 3 15 -3
-3 -6 -2 -13 4 -17 5 -3 10 0 10 8 0 9 9 12 29 9 23 -3 44 7 95 42 66 46 66
46 60 19 -3 -16 -15 -46 -27 -68 -29 -58 -38 -125 -22 -171 7 -21 12 -42 10
-48 -1 -6 -6 -25 -10 -42 -5 -25 -11 -30 -26 -27 -20 6 -28 -20 -10 -31 12 -8
2 -48 -16 -63 -8 -6 -12 -16 -9 -21 3 -6 1 -12 -5 -14 -16 -5 -24 -85 -9 -103
10 -12 10 -21 0 -45 -7 -16 -17 -30 -22 -30 -5 0 -6 4 -3 10 3 5 2 10 -3 10
-13 0 -34 -45 -30 -66 2 -13 14 -21 38 -24 23 -3 36 -11 38 -22 2 -12 -1 -16
-11 -12 -8 3 -18 0 -23 -7 -4 -7 -3 -10 2 -7 5 3 22 -8 38 -24 22 -21 25 -28
12 -28 -25 0 -19 -24 13 -48 22 -16 32 -35 40 -74 8 -35 19 -58 32 -66 12 -8
23 -11 26 -8 8 8 29 -17 38 -44 7 -23 7 -23 -9 -7 -22 22 -40 22 -57 0 -10
-11 -10 -14 -1 -9 8 5 12 1 12 -12 0 -11 7 -25 15 -32 12 -10 14 -24 9 -55 -3
-26 -2 -45 4 -49 16 -10 26 15 11 25 -12 8 -12 10 1 18 21 14 33 2 26 -25 -5
-19 -2 -25 21 -30 18 -5 28 -3 31 5 5 16 42 -16 43 -38 0 -10 2 -12 6 -3 2 6
8 12 13 12 12 0 20 -39 9 -46 -5 -3 -9 0 -9 6 0 7 -5 10 -12 8 -13 -5 -18 -58
-6 -58 4 0 8 5 8 11 0 14 43 0 53 -17 15 -26 45 -35 67 -22 17 11 22 11 29 -1
5 -8 11 -9 15 -3 3 6 1 12 -6 14 -7 3 -9 11 -4 24 7 18 9 17 32 -11 13 -16 24
-24 24 -17 0 19 40 14 46 -5 3 -10 10 -26 15 -36 5 -10 7 -22 4 -27 -4 -6 -1
-10 6 -10 7 0 9 -8 6 -21 -4 -16 -3 -18 8 -9 9 8 20 6 41 -5 16 -8 47 -22 69
-32 21 -9 47 -25 57 -35 10 -10 27 -18 37 -18 11 0 23 -4 26 -10 4 -6 10 -6
18 0 7 6 25 21 40 33 l28 23 -26 14 c-14 7 -25 17 -25 21 0 9 -47 22 -80 22
-28 0 -62 -12 -71 -25 -3 -5 -19 -2 -35 7 -16 8 -35 15 -41 15 -7 0 -13 5 -13
10 0 19 27 21 65 6 35 -15 37 -15 33 2 -4 15 -1 18 18 14 13 -2 24 -7 24 -11
0 -4 23 -8 51 -8 37 -1 54 -6 64 -19 11 -15 15 -16 15 -4 1 16 65 62 74 52 3
-3 6 -14 6 -24 0 -10 4 -18 9 -18 5 0 9 -16 8 -34 -1 -41 20 -86 40 -86 8 0
26 14 40 30 21 26 32 30 72 30 47 0 94 11 139 33 18 9 29 7 52 -6 31 -18 37
-16 69 30 13 20 14 20 32 2 20 -20 69 -26 69 -9 0 5 -8 7 -17 4 -15 -5 -16 -4
-3 5 18 13 43 15 36 2 -8 -12 20 -34 36 -28 7 2 33 -2 57 -9 41 -12 46 -12 62
7 9 10 23 17 30 14 16 -6 41 -55 28 -55 -12 0 1 -62 17 -79 19 -20 70 -3 66
22 -2 15 6 17 55 17 32 0 87 1 122 3 41 1 69 -2 77 -10 7 -7 17 -13 23 -13 6
0 11 -5 11 -11 0 -6 -8 -8 -20 -4 -10 3 -28 1 -40 -5 -20 -10 -20 -12 -3 -35
10 -13 23 -25 30 -25 16 0 54 -41 48 -51 -8 -12 17 -59 32 -59 7 0 13 9 13 20
0 13 -5 18 -15 14 -8 -4 -15 -1 -15 5 0 6 4 11 10 11 5 0 7 8 3 18 -4 12 -1
11 14 -6 14 -15 19 -30 15 -45 -5 -20 -4 -21 13 -7 17 14 18 13 11 -15 -4 -16
-12 -33 -18 -36 -13 -8 -40 0 -49 14 -4 5 -12 8 -18 6 -6 -2 10 -20 36 -40 27
-20 47 -41 46 -47 -4 -16 41 -62 60 -62 9 0 21 -9 27 -20 6 -11 16 -20 22 -20
6 0 2 10 -9 23 -11 12 -18 28 -15 36 3 9 0 12 -10 9 -7 -3 -22 0 -32 8 -15 11
-17 16 -7 28 15 18 6 37 -13 30 -20 -8 -13 34 10 51 17 13 17 14 2 15 -22 0
-23 16 -2 24 10 4 14 14 11 25 -4 18 -2 18 22 8 36 -15 62 -38 58 -51 -3 -6 2
-19 11 -28 21 -25 9 -47 -22 -41 -26 5 -34 17 -17 27 5 4 8 13 7 21 -3 18 -16
32 -16 17 0 -6 -6 -9 -13 -6 -8 3 -14 -2 -14 -11 0 -9 6 -14 13 -11 9 3 10 -3
4 -25 -10 -32 -2 -40 35 -36 23 2 44 25 45 48 0 21 57 16 75 -7 11 -15 15 -16
28 -5 9 7 20 10 25 7 5 -3 14 6 21 21 9 20 15 23 23 15 18 -18 38 -14 38 8 0
13 -7 20 -20 20 -12 0 -20 7 -20 16 0 11 6 15 20 11 10 -3 21 0 24 7 2 6 5 1
5 -11 1 -13 6 -23 13 -23 6 0 9 3 5 6 -8 8 25 44 40 44 7 0 13 -4 13 -10 0 -5
7 -10 15 -10 13 0 14 4 5 20 -8 15 -8 20 2 20 16 0 19 91 4 102 -18 12 0 19
25 9 13 -5 18 -10 12 -10 -18 -1 -16 -41 2 -41 7 0 19 8 24 18 6 9 11 11 11 5
0 -7 5 -13 11 -13 6 0 10 10 9 23 -4 39 0 62 8 52 4 -6 20 -16 35 -23 34 -15
31 -30 -11 -57 -17 -11 -31 -23 -32 -27 0 -14 28 -8 45 9 12 12 19 13 24 4 5
-8 13 -6 26 9 10 11 29 20 43 20 21 0 22 2 12 15 -8 9 -9 15 -2 15 6 0 14 -5
17 -10 4 -6 11 -8 16 -5 11 7 12 26 2 24 -20 -3 -23 3 -13 22 9 15 15 18 24
10 7 -6 16 -8 19 -5 3 4 14 3 24 -1 10 -5 26 -7 36 -6 11 2 17 -5 17 -19 0
-13 5 -20 13 -17 6 2 11 12 9 22 -3 12 1 16 12 12 8 -3 18 -2 21 3 4 6 -1 10
-9 10 -9 0 -16 4 -16 10 0 5 7 7 15 3 10 -3 15 0 13 8 -2 8 4 13 13 13 14 -1
15 4 9 27 -10 32 2 46 20 24 7 -8 9 -23 5 -37 -7 -21 -7 -22 17 -6 15 10 35
14 49 11 32 -8 79 -52 79 -75 0 -11 4 -16 10 -13 17 10 5 43 -29 81 -30 32
-32 39 -22 62 9 19 9 27 0 32 -6 4 -8 13 -4 19 5 8 14 4 31 -14 23 -25 25 -25
49 -9 14 9 25 21 25 26 0 5 5 6 10 3 6 -4 8 -10 5 -14 -2 -5 4 -16 15 -26 11
-10 20 -24 20 -31 0 -7 6 -14 12 -16 9 -3 8 -10 -5 -22 -22 -22 -17 -40 11
-44 24 -4 30 16 10 36 -16 16 -8 15 33 -3 32 -13 33 -16 9 -19 -6 0 -17 -13
-25 -28 -12 -24 -12 -28 1 -28 8 0 14 5 14 10 0 6 7 10 15 10 8 0 15 5 15 10
0 6 9 10 20 10 15 0 20 -7 20 -29 0 -27 24 -50 38 -36 3 3 0 5 -6 5 -15 0 -16
37 0 46 7 5 8 3 3 -5 -7 -12 11 -12 60 -1 6 1 17 2 24 1 12 -1 12 -4 3 -13
-17 -17 -15 -33 3 -18 14 12 19 7 16 -15 -1 -5 5 -2 12 8 13 16 37 24 37 11 0
-14 -22 -44 -29 -39 -5 2 -11 -7 -14 -20 -3 -21 -1 -24 13 -20 11 3 20 -1 24
-10 7 -18 -34 -21 -51 -4 -8 8 -13 7 -18 -1 -10 -15 32 -53 51 -46 12 4 12 2
4 -14 -12 -22 -10 -22 -100 -22 -36 0 -72 -4 -80 -8 -8 -5 27 -8 78 -9 85 0
93 2 111 24 10 14 25 25 32 25 10 0 10 3 1 12 -7 7 -8 17 -1 30 11 20 39 25
39 7 0 -7 10 -9 25 -7 24 5 25 4 19 -31 -8 -43 -12 -50 -23 -32 -6 9 -11 10
-15 2 -4 -6 -2 -11 4 -11 6 0 8 -5 5 -11 -4 -6 1 -17 11 -24 17 -13 17 -16 4
-25 -21 -14 -82 -30 -92 -24 -4 3 -8 -3 -8 -12 0 -14 -3 -15 -12 -6 -30 30
-81 -1 -73 -46 2 -14 -1 -30 -8 -35 -8 -6 -6 -7 6 -3 11 3 17 0 17 -9 0 -8 7
-15 15 -15 8 0 15 -4 15 -10 0 -5 5 -10 11 -10 6 0 8 8 4 19 -6 20 14 34 50
35 13 1 19 7 17 17 -1 9 4 19 13 22 18 7 38 -25 29 -47 -9 -23 5 -40 21 -26
10 8 22 7 46 -5 22 -12 28 -19 19 -25 -7 -4 -10 -12 -6 -18 5 -9 -20 -27 -35
-24 -3 1 -4 -9 -2 -22 3 -13 0 -27 -6 -30 -6 -4 -11 -12 -11 -18 0 -17 28 11
32 31 2 15 8 16 35 9 18 -5 34 -17 38 -27 3 -11 14 -19 24 -18 12 1 17 6 13
16 -4 11 -1 13 14 7 10 -5 26 -9 34 -9 8 0 17 -3 20 -7 9 -13 80 -22 80 -10 0
6 5 8 10 5 6 -4 8 -10 5 -15 -3 -4 11 -15 30 -24 19 -9 37 -21 41 -27 8 -14
55 -33 76 -30 9 1 19 -2 22 -7 8 -14 53 -2 72 19 9 10 30 19 46 19 21 0 31 6
37 23 5 12 12 21 17 20 5 -2 11 2 13 8 2 7 -1 9 -8 5 -6 -4 -11 -2 -11 3 0 6
5 11 10 11 6 0 10 5 10 11 0 5 -4 7 -10 4 -5 -3 -10 -2 -10 4 0 5 5 13 10 16
6 3 10 1 10 -4 0 -6 8 -11 18 -11 15 0 18 -6 14 -29 -3 -23 0 -30 19 -36 14
-5 25 -3 27 4 2 6 12 11 21 11 10 0 28 11 41 25 13 14 29 25 36 25 10 0 12 9
7 33 -13 62 -10 72 18 70 19 -1 30 5 37 23 7 13 24 26 39 30 15 3 59 17 96 30
80 28 87 29 87 9 0 -20 8 -19 54 4 20 11 50 24 67 30 17 6 29 17 29 28 0 10
10 29 21 43 11 14 18 19 14 13 -3 -7 -2 -13 3 -13 15 0 23 28 10 36 -14 9 18
34 44 34 11 0 18 7 18 19 0 23 57 67 82 63 16 -3 23 8 19 31 -1 5 4 7 11 5 7
-3 21 5 30 18 16 20 109 52 132 46 5 -2 12 1 15 6 7 11 84 35 174 56 91 21
107 21 107 -4 0 -17 5 -20 35 -17 24 3 35 0 35 -9 0 -7 8 -13 18 -13 9 -1 49
-3 87 -5 39 -2 84 -4 101 -5 16 -1 39 -8 50 -17 10 -8 12 -12 4 -8 -13 7 -13
5 -2 -8 8 -9 19 -15 26 -12 8 3 16 -2 19 -10 4 -9 14 -12 26 -9 12 3 28 0 36
-7 9 -7 18 -11 21 -8 7 7 -39 36 -69 43 -19 5 -23 11 -19 27 4 17 1 20 -15 16
-17 -5 -21 -1 -18 19 4 37 15 40 37 10 19 -26 24 -27 67 -21 25 4 48 8 49 9 2
2 -6 13 -18 25 -20 20 -20 22 -4 34 9 7 26 11 38 9 34 -7 70 42 44 58 -5 4 2
9 16 13 14 3 26 13 26 21 0 11 8 13 30 8 23 -4 30 -2 28 8 -2 8 3 13 10 11 8
-1 11 2 7 8 -3 5 -2 10 4 10 6 0 8 7 5 15 -6 15 29 55 48 55 5 0 6 5 3 10 -3
6 1 10 9 10 10 0 13 6 10 15 -4 10 0 15 15 15 15 0 21 6 21 23 0 13 5 28 12
35 9 9 9 12 -1 12 -9 0 -11 9 -6 30 6 26 4 30 -15 30 -19 0 -21 -4 -16 -25 7
-26 0 -31 -23 -16 -12 8 -11 16 7 51 11 23 18 48 15 56 -10 26 6 64 28 64 11
0 18 4 14 10 -3 5 -12 7 -19 4 -20 -8 -27 54 -8 65 17 10 8 31 -14 31 -25 0
-15 19 14 25 5 1 11 10 13 21 2 11 14 31 27
45 12 14 25 43 28 64 7 44 60 108 83 99 8 -3 14 0 14 6 0 6 -4 11 -9 11 -16 0
-19 54 -6 87 8 18 17 33 20 33 3 0 3 -5 0 -11 -12 -18 4 -56 25 -62 12 -3 18
-1 14 5 -4 6 -3 13 2 17 5 3 16 19 24 36 10 18 27 33 48 39 35 10 44 36 12 36
-14 0 -18 -5 -13 -17 6 -15 4 -16 -9 -6 -8 7 -19 9 -24 5 -4 -4 -2 1 5 11 7 9
20 17 27 17 19 0 18 49 -1 56 -8 4 -15 14 -15 23 1 18 23 51 35 51 4 0 19 10
33 22 15 11 20 18 11 15 -34 -12 -28 39 12 105 22 35 39 68 39 74 0 7 16 15
35 18 36 7 42 15 25 32 -17 17 4 31 95 63 49 18 98 39 107 48 38 34 69 103 73
161 2 31 4 60 4 64 1 4 20 20 44 35 64 40 66 46 67 163 0 85 -4 114 -22 157
-12 29 -29 55 -38 58 -14 4 -17 19 -18 66 -1 33 -6 66 -11 73 -6 7 -7 17 -3
21 4 5 1 5 -6 1 -9 -5 -15 -1 -19 13 -3 12 -12 21 -19 21 -8 0 -14 9 -14 20 0
24 13 26 34 5 18 -19 33 -20 17 -2 -6 8 -8 17 -4 20 3 4 -1 7 -10 7 -17 0 -32
34 -22 50 3 5 1 10 -4 10 -6 0 -11 7 -11 15 0 19 -48 66 -55 54 -4 -5 -2 -9 2
-9 5 0 17 -14 27 -31 25 -42 7 -52 -44 -28 -49 24 -58 38 -23 36 24 -2 28 1
25 22 -1 13 -14 37 -28 54 -17 21 -24 37 -20 53 5 18 3 21 -14 17 -11 -3 -20
-13 -21 -22 0 -9 -8 1 -17 22 -18 39 -49 58 -62 36 -7 -10 -12 -10 -25 1 -24
20 -34 51 -24 78 6 15 5 21 -1 17 -6 -3 -10 4 -10 16 0 22 0 22 -15 3 -14 -19
-14 -18 -15 4 0 26 34 31 48 6 5 -9 17 -14 27 -13 28 6 24 24 -6 27 -48 6 -53
41 -18 132 32 83 33 118 3 142 -8 7 -23 20 -32 29 -9 9 -24 19 -32 22 -12 4
-11 6 3 6 9 1 17 8 17 17 0 9 -6 14 -13 11 -13 -5 -43 30 -39 45 1 3 -5 12
-13 18 -18 15 -19 31 -4 64 16 34 39 42 36 13 -2 -17 4 -23 26 -25 15 -2 27
-9 27 -17 0 -7 6 -20 13 -27 6 -7 13 -25 14 -41 0 -15 3 -34 7 -42 6 -17 36
-21 36 -5 0 6 9 10 19 10 30 0 32 13 10 58 -29 58 -19 100 24 104 l32 3 -47
23 c-45 22 -47 26 -43 58 2 19 0 34 -5 34 -6 0 -10 7 -10 15 0 8 -9 19 -19 25
-21 11 -19 41 4 60 16 13 7 60 -11 60 -14 0 -19 22 -8 33 4 3 15 2 25 -4 13
-7 19 -6 19 1 0 6 -7 13 -15 16 -8 4 -13 10 -10 14 6 10 -13 24 -35 25 -53 5
-54 5 -42 17 7 7 12 21 12 33 0 14 -3 16 -9 7 -5 -9 -17 -11 -34 -6 -21 5 -27
3 -27 -10 0 -13 -6 -10 -26 11 -16 17 -28 23 -32 16 -18 -29 -82 -13 -82 21 0
17 2 18 10 6 5 -8 10 -10 10 -5 0 6 -5 17 -10 25 -6 10 -10 11 -10 3 0 -24
-38 -13 -59 15 -16 23 -17 32 -8 41 9 9 9 14 -3 21 -12 8 -11 10 8 11 12 1 27
3 32 4 6 1 55 3 109 4 l99 1 33 35 c19 19 38 35 44 35 16 1 67 91 60 108 -3 8
1 23 10 32 14 15 13 19 -10 46 -14 16 -25 36 -25 44 0 8 -10 35 -21 60 -11 25
-19 45 -17 46 2 0 -4 7 -12 16 -25 25 -68 30 -232 29 -103 -1 -158 2 -158 9 0
14 -28 13 -32 -2 -3 -9 -38 -14 -114 -16 -60 -2 -106 0 -102 4 12 11 -11 34
-28 27 -8 -3 -14 -11 -14 -19 0 -8 -6 -14 -12 -15 -7 0 -23 -2 -35 -5 -29 -5
-29 2 0 40 13 17 27 43 30 57 8 33 -7 88 -29 104 -14 10 -15 17 -6 43 6 18 10
32 8 32 -2 0 -36 -13 -76 -30 -101 -42 -122 -40 -160 14 -36 50 -86 90 -100
81 -23 -14 -68 7 -86 41 -18 34 -37 43 -49 24 -8 -13 -65 -13 -85 0 -8 5 -11
10 -6 10 23 0 -32 29 -55 30 -15 0 -30 7 -33 16 -9 22 -8 24 9 24 8 0 15 -6
15 -13 0 -9 12 -13 35 -13 19 1 35 6 35 11 0 6 10 15 22 20 31 13 54 63 40 84
-5 9 -15 15 -21 14 -6 -2 -27 6 -46 17 -20 11 -42 20 -50 20 -26 0 -16 15 20
32 28 12 43 14 70 5 48 -14 76 7 93 68 10 39 10 50 0 56 -16 10 -27 -7 -21
-32 8 -31 -12 -22 -24 11 -7 20 -16 28 -26 24 -8 -3 -17 2 -20 10 -11 28 -44
19 -56 -16z"/>
</g>
</svg>
